<?xml version="1.0" encoding="UTF-8" standalone="no"?>
<!DOCTYPE svg PUBLIC "-//W3C//DTD SVG 1.1//EN"
 "http://www.w3.org/Graphics/SVG/1.1/DTD/svg11.dtd">
<!-- Generated by graphviz version 2.50.0 (20211204.2007)
 -->
<!-- Title: exemple Pages: 1 -->
<svg width="260pt" height="700pt"
 viewBox="0.00 0.00 259.75 700.48" xmlns="http://www.w3.org/2000/svg" xmlns:xlink="http://www.w3.org/1999/xlink">
<g id="graph0" class="graph" transform="scale(1 1) rotate(0) translate(4 696.48)">
<title>exemple</title>
<polygon fill="white" stroke="transparent" points="-4,4 -4,-696.48 255.75,-696.48 255.75,4 -4,4"/>
<!-- 1 -->
<g id="node1" class="node">
<title>1</title>
<ellipse fill="lightblue" stroke="lightblue" cx="157" cy="-674.48" rx="18" ry="18"/>
<text text-anchor="middle" x="157" y="-670.78" font-family="Verdana" font-size="14.00">1</text>
</g>
<!-- 2 -->
<g id="node2" class="node">
<title>2</title>
<ellipse fill="lightblue" stroke="lightblue" cx="103" cy="-587.48" rx="18" ry="18"/>
<text text-anchor="middle" x="103" y="-583.78" font-family="Verdana" font-size="14.00">2</text>
</g>
<!-- 1&#45;&#45;2 -->
<g id="edge1" class="edge">
<title>1&#45;&#45;2</title>
<path fill="none" stroke="darkblue" d="M147.59,-658.67C137.68,-643.07 122.17,-618.65 112.3,-603.12"/>
<text text-anchor="middle" x="136.5" y="-627.28" font-family="Times,serif" font-size="14.00" fill="red">5</text>
</g>
<!-- 3 -->
<g id="node3" class="node">
<title>3</title>
<ellipse fill="lightblue" stroke="lightblue" cx="157" cy="-587.48" rx="18" ry="18"/>
<text text-anchor="middle" x="157" y="-583.78" font-family="Verdana" font-size="14.00">3</text>
</g>
<!-- 1&#45;&#45;3 -->
<g id="edge2" class="edge">
<title>1&#45;&#45;3</title>
<path fill="none" stroke="darkblue" d="M157,-656.28C157,-641.53 157,-620.39 157,-605.66"/>
<text text-anchor="middle" x="160.5" y="-627.28" font-family="Times,serif" font-size="14.00" fill="red">9</text>
</g>
<!-- 4 -->
<g id="node4" class="node">
<title>4</title>
<ellipse fill="lightblue" stroke="lightblue" cx="211" cy="-500.48" rx="18" ry="18"/>
<text text-anchor="middle" x="211" y="-496.78" font-family="Verdana" font-size="14.00">4</text>
</g>
<!-- 1&#45;&#45;4 -->
<g id="edge3" class="edge">
<title>1&#45;&#45;4</title>
<path fill="none" stroke="darkblue" d="M163.89,-657.75C169.72,-644.09 178.04,-623.71 184,-605.48 193.91,-575.16 202.63,-538.94 207.33,-518.23"/>
<text text-anchor="middle" x="197.5" y="-583.78" font-family="Times,serif" font-size="14.00" fill="red">4</text>
</g>
<!-- 5 -->
<g id="node5" class="node">
<title>5</title>
<ellipse fill="lightblue" stroke="lightblue" cx="46" cy="-500.48" rx="18" ry="18"/>
<text text-anchor="middle" x="46" y="-496.78" font-family="Verdana" font-size="14.00">5</text>
</g>
<!-- 2&#45;&#45;5 -->
<g id="edge4" class="edge">
<title>2&#45;&#45;5</title>
<path fill="none" stroke="darkblue" d="M93.33,-572.06C82.85,-556.43 66.22,-531.63 55.72,-515.97"/>
<text text-anchor="middle" x="81.5" y="-540.28" font-family="Times,serif" font-size="14.00" fill="red">3</text>
</g>
<!-- 6 -->
<g id="node6" class="node">
<title>6</title>
<ellipse fill="lightblue" stroke="lightblue" cx="153" cy="-500.48" rx="18" ry="18"/>
<text text-anchor="middle" x="153" y="-496.78" font-family="Verdana" font-size="14.00">6</text>
</g>
<!-- 2&#45;&#45;6 -->
<g id="edge5" class="edge">
<title>2&#45;&#45;6</title>
<path fill="none" stroke="darkblue" d="M111.71,-571.67C120.83,-556.17 135.08,-531.95 144.22,-516.4"/>
<text text-anchor="middle" x="133.5" y="-540.28" font-family="Times,serif" font-size="14.00" fill="red">2</text>
</g>
<!-- 3&#45;&#45;4 -->
<g id="edge6" class="edge">
<title>3&#45;&#45;4</title>
<path fill="none" stroke="darkblue" d="M166.41,-571.67C176.32,-556.07 191.83,-531.65 201.7,-516.12"/>
<text text-anchor="middle" x="190.5" y="-540.28" font-family="Times,serif" font-size="14.00" fill="red">4</text>
</g>
<!-- 3&#45;&#45;6 -->
<g id="edge7" class="edge">
<title>3&#45;&#45;6</title>
<path fill="none" stroke="darkblue" d="M156.19,-569.28C155.5,-554.53 154.5,-533.39 153.81,-518.66"/>
<text text-anchor="middle" x="158.5" y="-540.28" font-family="Times,serif" font-size="14.00" fill="red">1</text>
</g>
<!-- 7 -->
<g id="node7" class="node">
<title>7</title>
<ellipse fill="lightblue" stroke="lightblue" cx="209" cy="-408.73" rx="18" ry="18"/>
<text text-anchor="middle" x="209" y="-405.03" font-family="Verdana" font-size="14.00">7</text>
</g>
<!-- 4&#45;&#45;7 -->
<g id="edge8" class="edge">
<title>4&#45;&#45;7</title>
<path fill="none" stroke="darkblue" d="M210.61,-482.18C210.26,-466.28 209.74,-442.86 209.38,-426.98"/>
<text text-anchor="middle" x="213.5" y="-453.28" font-family="Times,serif" font-size="14.00" fill="red">7</text>
</g>
<!-- 8 -->
<g id="node8" class="node">
<title>8</title>
<ellipse fill="lightblue" stroke="lightblue" cx="18" cy="-215.74" rx="18" ry="18"/>
<text text-anchor="middle" x="18" y="-212.04" font-family="Verdana" font-size="14.00">8</text>
</g>
<!-- 5&#45;&#45;8 -->
<g id="edge9" class="edge">
<title>5&#45;&#45;8</title>
<path fill="none" stroke="darkblue" d="M41.38,-482.84C33.47,-453.34 17.61,-389.81 12,-334.98 9.94,-314.87 11.17,-309.69 12,-289.49 12.79,-270.37 14.73,-248.49 16.2,-233.77"/>
<text text-anchor="middle" x="20.5" y="-356.78" font-family="Times,serif" font-size="14.00" fill="red">4</text>
</g>
<!-- 9 -->
<g id="node9" class="node">
<title>9</title>
<ellipse fill="lightblue" stroke="lightblue" cx="39" cy="-312.24" rx="18" ry="18"/>
<text text-anchor="middle" x="39" y="-308.54" font-family="Verdana" font-size="14.00">9</text>
</g>
<!-- 5&#45;&#45;9 -->
<g id="edge10" class="edge">
<title>5&#45;&#45;9</title>
<path fill="none" stroke="darkblue" d="M45.35,-482.29C44.02,-446.81 40.98,-365.83 39.64,-330.38"/>
<text text-anchor="middle" x="47.5" y="-405.03" font-family="Times,serif" font-size="14.00" fill="red">2</text>
</g>
<!-- 10 -->
<g id="node10" class="node">
<title>10</title>
<ellipse fill="lightblue" stroke="lightblue" cx="94" cy="-408.73" rx="23" ry="23"/>
<text text-anchor="middle" x="94" y="-405.03" font-family="Verdana" font-size="14.00">10</text>
</g>
<!-- 5&#45;&#45;10 -->
<g id="edge11" class="edge">
<title>5&#45;&#45;10</title>
<path fill="none" stroke="darkblue" d="M54.14,-484.26C62.27,-469.05 74.8,-445.63 83.64,-429.11"/>
<text text-anchor="middle" x="75.5" y="-453.28" font-family="Times,serif" font-size="14.00" fill="red">9</text>
</g>
<!-- 6&#45;&#45;7 -->
<g id="edge12" class="edge">
<title>6&#45;&#45;7</title>
<path fill="none" stroke="darkblue" d="M162.25,-484.66C172.62,-468.03 189.36,-441.21 199.74,-424.57"/>
<text text-anchor="middle" x="185.5" y="-453.28" font-family="Times,serif" font-size="14.00" fill="red">3</text>
</g>
<!-- 6&#45;&#45;10 -->
<g id="edge13" class="edge">
<title>6&#45;&#45;10</title>
<path fill="none" stroke="darkblue" d="M143.52,-485.06C133.36,-469.6 117.19,-445.01 106.11,-428.16"/>
<text text-anchor="middle" x="131.5" y="-453.28" font-family="Times,serif" font-size="14.00" fill="red">9</text>
</g>
<!-- 11 -->
<g id="node11" class="node">
<title>11</title>
<ellipse fill="lightblue" stroke="lightblue" cx="179" cy="-312.24" rx="23" ry="23"/>
<text text-anchor="middle" x="179" y="-308.54" font-family="Verdana" font-size="14.00">11</text>
</g>
<!-- 6&#45;&#45;11 -->
<g id="edge14" class="edge">
<title>6&#45;&#45;11</title>
<path fill="none" stroke="darkblue" d="M155.35,-482.62C160.08,-448.78 170.72,-372.58 175.96,-335.01"/>
<text text-anchor="middle" x="171.5" y="-405.03" font-family="Times,serif" font-size="14.00" fill="red">6</text>
</g>
<!-- 7&#45;&#45;11 -->
<g id="edge15" class="edge">
<title>7&#45;&#45;11</title>
<path fill="none" stroke="darkblue" d="M203.77,-391.27C198.74,-375.41 191.1,-351.34 185.63,-334.13"/>
<text text-anchor="middle" x="198.5" y="-356.78" font-family="Times,serif" font-size="14.00" fill="red">8</text>
</g>
<!-- 15 -->
<g id="node12" class="node">
<title>15</title>
<ellipse fill="lightblue" stroke="lightblue" cx="229" cy="-215.74" rx="23" ry="23"/>
<text text-anchor="middle" x="229" y="-212.04" font-family="Verdana" font-size="14.00">15</text>
</g>
<!-- 7&#45;&#45;15 -->
<g id="edge16" class="edge">
<title>7&#45;&#45;15</title>
<path fill="none" stroke="darkblue" d="M210.77,-390.78C214.41,-356.09 222.69,-277.02 226.71,-238.56"/>
<text text-anchor="middle" x="224.5" y="-308.54" font-family="Times,serif" font-size="14.00" fill="red">5</text>
</g>
<!-- 12 -->
<g id="node13" class="node">
<title>12</title>
<ellipse fill="lightblue" stroke="lightblue" cx="76" cy="-119.24" rx="23" ry="23"/>
<text text-anchor="middle" x="76" y="-115.54" font-family="Verdana" font-size="14.00">12</text>
</g>
<!-- 8&#45;&#45;12 -->
<g id="edge17" class="edge">
<title>8&#45;&#45;12</title>
<path fill="none" stroke="darkblue" d="M27.06,-199.97C37.13,-183.57 53.41,-157.05 64.4,-139.14"/>
<text text-anchor="middle" x="54.5" y="-163.79" font-family="Times,serif" font-size="14.00" fill="red">5</text>
</g>
<!-- 9&#45;&#45;8 -->
<g id="edge18" class="edge">
<title>9&#45;&#45;8</title>
<path fill="none" stroke="darkblue" d="M35.25,-294.34C31.42,-277.14 25.53,-250.63 21.72,-233.49"/>
<text text-anchor="middle" x="33.5" y="-260.29" font-family="Times,serif" font-size="14.00" fill="red">3</text>
</g>
<!-- 13 -->
<g id="node14" class="node">
<title>13</title>
<ellipse fill="lightblue" stroke="lightblue" cx="77" cy="-215.74" rx="23" ry="23"/>
<text text-anchor="middle" x="77" y="-212.04" font-family="Verdana" font-size="14.00">13</text>
</g>
<!-- 9&#45;&#45;13 -->
<g id="edge19" class="edge">
<title>9&#45;&#45;13</title>
<path fill="none" stroke="darkblue" d="M45.45,-295.21C51.88,-279.2 61.8,-254.54 68.8,-237.14"/>
<text text-anchor="middle" x="68" y="-260.29" font-family="Times,serif" font-size="14.00" fill="red">10</text>
</g>
<!-- 10&#45;&#45;9 -->
<g id="edge20" class="edge">
<title>10&#45;&#45;9</title>
<path fill="none" stroke="darkblue" d="M82.87,-388.61C72.51,-370.81 57.28,-344.65 47.76,-328.29"/>
<text text-anchor="middle" x="73.5" y="-356.78" font-family="Times,serif" font-size="14.00" fill="red">6</text>
</g>
<!-- 10&#45;&#45;13 -->
<g id="edge21" class="edge">
<title>10&#45;&#45;13</title>
<path fill="none" stroke="darkblue" d="M92.05,-385.82C88.78,-349.08 82.23,-275.46 78.95,-238.69"/>
<text text-anchor="middle" x="91.5" y="-308.54" font-family="Times,serif" font-size="14.00" fill="red">5</text>
</g>
<!-- 14 -->
<g id="node15" class="node">
<title>14</title>
<ellipse fill="lightblue" stroke="lightblue" cx="155" cy="-119.24" rx="23" ry="23"/>
<text text-anchor="middle" x="155" y="-115.54" font-family="Verdana" font-size="14.00">14</text>
</g>
<!-- 10&#45;&#45;14 -->
<g id="edge22" class="edge">
<title>10&#45;&#45;14</title>
<path fill="none" stroke="darkblue" d="M99.57,-386.32C101.06,-380.39 102.64,-373.95 104,-367.98 123.03,-284.72 142.58,-184.97 150.88,-141.85"/>
<text text-anchor="middle" x="130.5" y="-260.29" font-family="Times,serif" font-size="14.00" fill="red">1</text>
</g>
<!-- 11&#45;&#45;14 -->
<g id="edge23" class="edge">
<title>11&#45;&#45;14</title>
<path fill="none" stroke="darkblue" d="M176.25,-289.33C171.62,-252.48 162.33,-178.57 157.72,-141.9"/>
<text text-anchor="middle" x="172.5" y="-212.04" font-family="Times,serif" font-size="14.00" fill="red">2</text>
</g>
<!-- 15&#45;&#45;14 -->
<g id="edge28" class="edge">
<title>15&#45;&#45;14</title>
<path fill="none" stroke="darkblue" d="M215.43,-197.41C202.16,-180.46 182.06,-154.8 168.74,-137.79"/>
<text text-anchor="middle" x="199.5" y="-163.79" font-family="Times,serif" font-size="14.00" fill="red">4</text>
</g>
<!-- 16 -->
<g id="node16" class="node">
<title>16</title>
<ellipse fill="lightblue" stroke="lightblue" cx="155" cy="-22.75" rx="23" ry="23"/>
<text text-anchor="middle" x="155" y="-19.05" font-family="Verdana" font-size="14.00">16</text>
</g>
<!-- 15&#45;&#45;16 -->
<g id="edge29" class="edge">
<title>15&#45;&#45;16</title>
<path fill="none" stroke="darkblue" d="M222.02,-193.64C214.04,-169.85 200.34,-130.11 187,-96.5 179.82,-78.41 170.84,-58.18 164.23,-43.65"/>
<text text-anchor="middle" x="206.5" y="-115.54" font-family="Times,serif" font-size="14.00" fill="red">3</text>
</g>
<!-- 12&#45;&#45;16 -->
<g id="edge24" class="edge">
<title>12&#45;&#45;16</title>
<path fill="none" stroke="darkblue" d="M90.12,-101.35C104.41,-84.26 126.39,-57.97 140.73,-40.81"/>
<text text-anchor="middle" x="123.5" y="-67.3" font-family="Times,serif" font-size="14.00" fill="red">9</text>
</g>
<!-- 13&#45;&#45;12 -->
<g id="edge25" class="edge">
<title>13&#45;&#45;12</title>
<path fill="none" stroke="darkblue" d="M76.77,-192.82C76.61,-177.56 76.39,-157.28 76.23,-142.04"/>
<text text-anchor="middle" x="80.5" y="-163.79" font-family="Times,serif" font-size="14.00" fill="red">4</text>
</g>
<!-- 13&#45;&#45;14 -->
<g id="edge26" class="edge">
<title>13&#45;&#45;14</title>
<path fill="none" stroke="darkblue" d="M86.51,-194.98C92.24,-184.09 100.13,-170.66 109,-159.99 117.23,-150.09 128.06,-140.6 137.15,-133.38"/>
<text text-anchor="middle" x="112.5" y="-163.79" font-family="Times,serif" font-size="14.00" fill="red">3</text>
</g>
<!-- 14&#45;&#45;16 -->
<g id="edge27" class="edge">
<title>14&#45;&#45;16</title>
<path fill="none" stroke="darkblue" d="M155,-96.33C155,-81.06 155,-60.79 155,-45.55"/>
<text text-anchor="middle" x="158.5" y="-67.3" font-family="Times,serif" font-size="14.00" fill="red">4</text>
</g>
</g>
</svg>
